<svg width="51" height="51" viewBox="0 0 51 51" fill="none" xmlns="http://www.w3.org/2000/svg">
<path fill-rule="evenodd" clip-rule="evenodd" d="M16.225 50.3828C35.0925 50.3828 45.4125 31.1437 45.4125 14.4616C45.4125 13.914 45.4125 13.3704 45.3825 12.8289C47.39 11.0444 49.1225 8.82872 50.5 6.2935C48.63 7.31498 46.6425 7.98487 44.61 8.28022C46.75 6.70186 48.3525 4.22216 49.12 1.29618C47.105 2.76686 44.9025 3.8048 42.605 4.36171C38.72 -0.72107 32.2225 -0.967331 28.09 3.81392C25.4275 6.8968 24.295 11.4933 25.1225 15.8777C16.875 15.3669 9.19 10.5735 3.98 2.6878C1.2575 8.45666 2.65 15.8339 7.1575 19.5383C5.525 19.4798 3.9275 18.9389 2.5 17.9605V18.1207C2.5025 24.1296 5.945 29.3036 10.73 30.4943C9.22 31.0019 7.635 31.0755 6.1 30.7094C7.4425 35.8537 11.295 39.3772 15.6825 39.4787C12.05 42.9924 7.5625 44.9003 2.9425 44.8942C2.1275 44.8911 1.3125 44.8325 0.5 44.7126C5.1925 48.417 10.65 50.3829 16.225 50.3737" fill="#084A83"/>
</svg>
