<svg width="50" height="29" viewBox="0 0 50 29" fill="none" xmlns="http://www.w3.org/2000/svg">
<path fill-rule="evenodd" clip-rule="evenodd" d="M19.9711 19.8569V8.23247C24.9516 10.1743 28.809 12.0501 33.3711 14.0725C29.6084 15.8016 24.9516 17.7416 19.9711 19.8569ZM47.7275 2.45109C46.8684 1.51323 45.4041 0.783184 43.8452 0.54149C39.2631 -0.179471 10.6775 -0.181522 6.09788 0.54149C4.84777 0.735665 3.73459 1.20502 2.77833 1.93424C-1.25091 5.03289 0.0116655 21.65 0.982868 24.3417C1.39127 25.5068 1.91922 26.347 2.58412 26.8986C3.44077 27.6278 4.61367 28.1299 5.9609 28.3551C9.73363 29.0017 29.1701 29.3632 43.7655 28.4522C45.1102 28.258 46.3006 27.7397 47.2394 26.9795C50.9648 23.8932 50.7108 6.34299 47.7275 2.45109Z" fill="#084A83"/>
</svg>
