<svg width="26" height="26" viewBox="0 0 26 26" fill="none" xmlns="http://www.w3.org/2000/svg">
<path d="M19.5 13C19.5 13.2652 19.3946 13.5196 19.2071 13.7071C19.0196 13.8946 18.7652 14 18.5 14H8.50001C8.23479 14 7.98044 13.8946 7.7929 13.7071C7.60536 13.5196 7.50001 13.2652 7.50001 13C7.50001 12.7348 7.60536 12.4804 7.7929 12.2929C7.98044 12.1054 8.23479 12 8.50001 12H18.5C18.7652 12 19.0196 12.1054 19.2071 12.2929C19.3946 12.4804 19.5 12.7348 19.5 13ZM26.5 13C26.5 15.5712 25.7376 18.0846 24.3091 20.2224C22.8807 22.3603 20.8503 24.0265 18.4749 25.0104C16.0995 25.9944 13.4856 26.2518 10.9638 25.7502C8.44208 25.2486 6.1257 24.0105 4.30762 22.1924C2.48953 20.3743 1.25141 18.0579 0.749797 15.5362C0.248189 13.0144 0.505633 10.4006 1.48957 8.02512C2.47351 5.64968 4.13975 3.61935 6.27759 2.1909C8.41543 0.762437 10.9288 0 13.5 0C16.9467 0.00363977 20.2512 1.37445 22.6884 3.81163C25.1256 6.24882 26.4964 9.5533 26.5 13ZM24.5 13C24.5 10.8244 23.8549 8.69767 22.6462 6.88873C21.4375 5.07979 19.7195 3.66989 17.7095 2.83733C15.6995 2.00476 13.4878 1.78692 11.354 2.21136C9.22022 2.6358 7.26021 3.68345 5.72183 5.22183C4.18345 6.7602 3.13581 8.72022 2.71137 10.854C2.28693 12.9878 2.50477 15.1995 3.33733 17.2095C4.16989 19.2195 5.57979 20.9375 7.38873 22.1462C9.19767 23.3549 11.3244 24 13.5 24C16.4164 23.9967 19.2123 22.8367 21.2745 20.7745C23.3367 18.7123 24.4967 15.9164 24.5 13Z" fill="#FF5C28"/>
</svg>